# xmcd CD database file generated by Grip 3.0.7
# 
# Track frame offsets:
#       183
#       12213
#       22913
#       37690
#       52618
#       64975
#       76603
#       90725
#       103945
#       115180
#       127800
#       139555
#       152780
#       166358
#       176200
#       189645
#       202188
#       214500
#       225050
#       239313
# 
# Disc length: 3369 seconds
# 
# Revision: 2
# Processed by: cddbd v1.5PL3 Copyright (c) Steve Scherf et al.
# Submitted via: Grip 3.0.7
# 
DISCID=f20d2714
DTITLE=Muddy Waters - 20 Reflective Recordings
DYEAR=1900
DGENRE=Blues
TTITLE0=The Stuff You Gotta Watch
TTITLE1=She's All Right
TTITLE2=Baby Please Don't Go
TTITLE3=Iodine In My Coffee
TTITLE4=So Glad I'm Livin'
TTITLE5=Sittin' Here Drinkin'
TTITLE6=One More Mile
TTITLE7=Close To You
TTITLE8=I Can't Call Her Sugar
TTITLE9=Train Fare Blues
TTITLE10=You Gonna Miss Me
TTITLE11=You Can't Loose What You Ain't Never Had
TTITLE12=I Got A Rich Man's Woman
TTITLE13=Mean Red Spider
TTITLE14=Sad Letter
TTITLE15=Mean Mistreater
TTITLE16=I Can't Be Satisfied
TTITLE17=Diamonds At Your Feet
TTITLE18=Rollin' Stone
TTITLE19=You Gonna Need My Help
EXTD=
EXTT0=
EXTT1=
EXTT2=
EXTT3=
EXTT4=
EXTT5=
EXTT6=
EXTT7=
EXTT8=
EXTT9=
EXTT10=
EXTT11=
EXTT12=
EXTT13=
EXTT14=
EXTT15=
EXTT16=
EXTT17=
EXTT18=
EXTT19=
PLAYORDER=
